<?xml version="1.0" encoding="UTF-8" standalone="no"?>
<!DOCTYPE svg PUBLIC "-//W3C//DTD SVG 1.1//EN"
 "http://www.w3.org/Graphics/SVG/1.1/DTD/svg11.dtd">
<!-- Generated by graphviz version 2.30.1 (20130514.1915)
 -->
<!-- Title: controllers_diagram Pages: 1 -->
<svg width="774pt" height="653pt"
 viewBox="0.00 0.00 774.38 653.00" xmlns="http://www.w3.org/2000/svg" xmlns:xlink="http://www.w3.org/1999/xlink">
<g id="graph0" class="graph" transform="scale(1 1) rotate(0) translate(4 649)">
<title>controllers_diagram</title>
<polygon fill="white" stroke="white" points="-4,5 -4,-649 771.375,-649 771.375,5 -4,5"/>
<!-- _diagram_info -->
<g id="node1" class="node"><title>_diagram_info</title>
<text text-anchor="start" x="567" y="-628" font-family="Times,serif" font-size="13.00">Controllers diagram</text>
<text text-anchor="start" x="567" y="-612.4" font-family="Times,serif" font-size="13.00">Date: May 14 2013 &#45; 15:25</text>
<text text-anchor="start" x="567" y="-596.8" font-family="Times,serif" font-size="13.00">Migration version: 20130514183729</text>
<text text-anchor="start" x="567" y="-581.2" font-family="Times,serif" font-size="13.00">Generated by RailRoady 1.1.0</text>
<text text-anchor="start" x="567" y="-565.6" font-family="Times,serif" font-size="13.00">http://railroady.prestonlee.com</text>
</g>
<!-- ApplicationController -->
<g id="node2" class="node"><title>ApplicationController</title>
<path fill="none" stroke="black" d="M187.789,-199.503C187.789,-199.503 366.424,-199.503 366.424,-199.503 372.424,-199.503 378.424,-205.503 378.424,-211.503 378.424,-211.503 378.424,-285.903 378.424,-285.903 378.424,-291.903 372.424,-297.903 366.424,-297.903 366.424,-297.903 187.789,-297.903 187.789,-297.903 181.789,-297.903 175.789,-291.903 175.789,-285.903 175.789,-285.903 175.789,-211.503 175.789,-211.503 175.789,-205.503 181.789,-199.503 187.789,-199.503"/>
<text text-anchor="middle" x="277.106" y="-279.903" font-family="Times,serif" font-size="14.00">ApplicationController</text>
<polyline fill="none" stroke="black" points="175.789,-273.103 378.424,-273.103 "/>
<text text-anchor="start" x="183.789" y="-255.103" font-family="Times,serif" font-size="14.00">_one_time_conditions_valid_12?</text>
<polyline fill="none" stroke="black" points="175.789,-248.303 378.424,-248.303 "/>
<polyline fill="none" stroke="black" points="175.789,-224.303 378.424,-224.303 "/>
<text text-anchor="start" x="183.789" y="-206.303" font-family="Times,serif" font-size="14.00">_layout</text>
</g>
<!-- DashboardsController -->
<g id="node3" class="node"><title>DashboardsController</title>
<path fill="none" stroke="black" d="M399.218,-207.583C399.218,-207.583 514.86,-207.583 514.86,-207.583 520.86,-207.583 526.86,-213.583 526.86,-219.583 526.86,-219.583 526.86,-293.983 526.86,-293.983 526.86,-299.983 520.86,-305.983 514.86,-305.983 514.86,-305.983 399.218,-305.983 399.218,-305.983 393.218,-305.983 387.218,-299.983 387.218,-293.983 387.218,-293.983 387.218,-219.583 387.218,-219.583 387.218,-213.583 393.218,-207.583 399.218,-207.583"/>
<text text-anchor="middle" x="457.039" y="-287.983" font-family="Times,serif" font-size="14.00">DashboardsController</text>
<polyline fill="none" stroke="black" points="387.218,-281.183 526.86,-281.183 "/>
<text text-anchor="start" x="395.218" y="-263.183" font-family="Times,serif" font-size="14.00">show</text>
<polyline fill="none" stroke="black" points="387.218,-256.383 526.86,-256.383 "/>
<polyline fill="none" stroke="black" points="387.218,-232.383 526.86,-232.383 "/>
<text text-anchor="start" x="395.218" y="-214.383" font-family="Times,serif" font-size="14.00">_layout</text>
</g>
<!-- ApplicationController&#45;&gt;DashboardsController -->
<g id="edge1" class="edge"><title>ApplicationController&#45;&gt;DashboardsController</title>
<path fill="none" stroke="black" d="M378.641,-253.263C381.511,-253.392 384.365,-253.52 387.191,-253.647"/>
</g>
<!-- FollowingRelationshipsController -->
<g id="node4" class="node"><title>FollowingRelationshipsController</title>
<path fill="none" stroke="black" d="M19.2288,-20.6623C19.2288,-20.6623 202.56,-20.6623 202.56,-20.6623 208.56,-20.6623 214.56,-26.6623 214.56,-32.6623 214.56,-32.6623 214.56,-107.062 214.56,-107.062 214.56,-113.062 208.56,-119.062 202.56,-119.062 202.56,-119.062 19.2288,-119.062 19.2288,-119.062 13.2288,-119.062 7.22885,-113.062 7.22885,-107.062 7.22885,-107.062 7.22885,-32.6623 7.22885,-32.6623 7.22885,-26.6623 13.2288,-20.6623 19.2288,-20.6623"/>
<text text-anchor="middle" x="110.894" y="-101.062" font-family="Times,serif" font-size="14.00">FollowingRelationshipsController</text>
<polyline fill="none" stroke="black" points="7.22885,-94.2623 214.56,-94.2623 "/>
<text text-anchor="start" x="15.2288" y="-76.2623" font-family="Times,serif" font-size="14.00">create</text>
<polyline fill="none" stroke="black" points="7.22885,-69.4623 214.56,-69.4623 "/>
<polyline fill="none" stroke="black" points="7.22885,-45.4623 214.56,-45.4623 "/>
<text text-anchor="start" x="15.2288" y="-27.4623" font-family="Times,serif" font-size="14.00">_layout</text>
</g>
<!-- ApplicationController&#45;&gt;FollowingRelationshipsController -->
<g id="edge2" class="edge"><title>ApplicationController&#45;&gt;FollowingRelationshipsController</title>
<path fill="none" stroke="black" d="M231.248,-199.361C208.091,-174.444 180.068,-144.292 156.891,-119.354"/>
</g>
<!-- HomesController -->
<g id="node5" class="node"><title>HomesController</title>
<path fill="none" stroke="black" d="M12,-352.279C12,-352.279 190.635,-352.279 190.635,-352.279 196.635,-352.279 202.635,-358.279 202.635,-364.279 202.635,-364.279 202.635,-472.279 202.635,-472.279 202.635,-478.279 196.635,-484.279 190.635,-484.279 190.635,-484.279 12,-484.279 12,-484.279 6,-484.279 0,-478.279 0,-472.279 0,-472.279 0,-364.279 0,-364.279 0,-358.279 6,-352.279 12,-352.279"/>
<text text-anchor="middle" x="101.317" y="-466.279" font-family="Times,serif" font-size="14.00">HomesController</text>
<polyline fill="none" stroke="black" points="0,-459.479 202.635,-459.479 "/>
<text text-anchor="start" x="8" y="-441.479" font-family="Times,serif" font-size="14.00">_one_time_conditions_valid_18?</text>
<text text-anchor="start" x="8" y="-424.679" font-family="Times,serif" font-size="14.00">show</text>
<polyline fill="none" stroke="black" points="0,-417.879 202.635,-417.879 "/>
<polyline fill="none" stroke="black" points="0,-393.879 202.635,-393.879 "/>
<text text-anchor="start" x="8" y="-375.879" font-family="Times,serif" font-size="14.00">_layout</text>
<text text-anchor="start" x="8" y="-359.079" font-family="Times,serif" font-size="14.00">check_logged_in_user</text>
</g>
<!-- ApplicationController&#45;&gt;HomesController -->
<g id="edge3" class="edge"><title>ApplicationController&#45;&gt;HomesController</title>
<path fill="none" stroke="black" d="M225.788,-298.207C208.358,-315.022 188.591,-334.09 170.025,-351.999"/>
</g>
<!-- PhotoShoutsController -->
<g id="node6" class="node"><title>PhotoShoutsController</title>
<path fill="none" stroke="black" d="M391.342,-361.017C391.342,-361.017 520.977,-361.017 520.977,-361.017 526.977,-361.017 532.977,-367.017 532.977,-373.017 532.977,-373.017 532.977,-481.017 532.977,-481.017 532.977,-487.017 526.977,-493.017 520.977,-493.017 520.977,-493.017 391.342,-493.017 391.342,-493.017 385.342,-493.017 379.342,-487.017 379.342,-481.017 379.342,-481.017 379.342,-373.017 379.342,-373.017 379.342,-367.017 385.342,-361.017 391.342,-361.017"/>
<text text-anchor="middle" x="456.159" y="-475.017" font-family="Times,serif" font-size="14.00">PhotoShoutsController</text>
<polyline fill="none" stroke="black" points="379.342,-468.217 532.977,-468.217 "/>
<text text-anchor="start" x="387.342" y="-450.217" font-family="Times,serif" font-size="14.00">create</text>
<polyline fill="none" stroke="black" points="379.342,-443.417 532.977,-443.417 "/>
<polyline fill="none" stroke="black" points="379.342,-419.417 532.977,-419.417 "/>
<text text-anchor="start" x="387.342" y="-401.417" font-family="Times,serif" font-size="14.00">_layout</text>
<text text-anchor="start" x="387.342" y="-384.617" font-family="Times,serif" font-size="14.00">build_content</text>
<text text-anchor="start" x="387.342" y="-367.817" font-family="Times,serif" font-size="14.00">photo_shout_parameters</text>
</g>
<!-- ApplicationController&#45;&gt;PhotoShoutsController -->
<g id="edge4" class="edge"><title>ApplicationController&#45;&gt;PhotoShoutsController</title>
<path fill="none" stroke="black" d="M326.983,-298.374C346.436,-317.747 369.02,-340.238 389.813,-360.944"/>
</g>
<!-- SessionsController -->
<g id="node7" class="node"><title>SessionsController</title>
<path fill="none" stroke="black" d="M226.78,-340.692C226.78,-340.692 324.559,-340.692 324.559,-340.692 330.559,-340.692 336.559,-346.692 336.559,-352.692 336.559,-352.692 336.559,-494.292 336.559,-494.292 336.559,-500.292 330.559,-506.292 324.559,-506.292 324.559,-506.292 226.78,-506.292 226.78,-506.292 220.78,-506.292 214.78,-500.292 214.78,-494.292 214.78,-494.292 214.78,-352.692 214.78,-352.692 214.78,-346.692 220.78,-340.692 226.78,-340.692"/>
<text text-anchor="middle" x="275.669" y="-488.292" font-family="Times,serif" font-size="14.00">SessionsController</text>
<polyline fill="none" stroke="black" points="214.78,-481.492 336.559,-481.492 "/>
<text text-anchor="start" x="222.78" y="-463.492" font-family="Times,serif" font-size="14.00">create</text>
<text text-anchor="start" x="222.78" y="-446.692" font-family="Times,serif" font-size="14.00">destroy</text>
<text text-anchor="start" x="222.78" y="-429.892" font-family="Times,serif" font-size="14.00">new</text>
<polyline fill="none" stroke="black" points="214.78,-423.092 336.559,-423.092 "/>
<polyline fill="none" stroke="black" points="214.78,-399.092 336.559,-399.092 "/>
<text text-anchor="start" x="222.78" y="-381.092" font-family="Times,serif" font-size="14.00">_layout</text>
<text text-anchor="start" x="222.78" y="-364.292" font-family="Times,serif" font-size="14.00">session_params</text>
<text text-anchor="start" x="222.78" y="-347.492" font-family="Times,serif" font-size="14.00">set_flash_message</text>
</g>
<!-- ApplicationController&#45;&gt;SessionsController -->
<g id="edge5" class="edge"><title>ApplicationController&#45;&gt;SessionsController</title>
<path fill="none" stroke="black" d="M276.698,-298.323C276.59,-311.545 276.469,-326.195 276.35,-340.677"/>
</g>
<!-- ShoutsController -->
<g id="node8" class="node"><title>ShoutsController</title>
<path fill="none" stroke="black" d="M56.2164,-181.356C56.2164,-181.356 146.962,-181.356 146.962,-181.356 152.962,-181.356 158.962,-187.356 158.962,-193.356 158.962,-193.356 158.962,-284.556 158.962,-284.556 158.962,-290.556 152.962,-296.556 146.962,-296.556 146.962,-296.556 56.2164,-296.556 56.2164,-296.556 50.2164,-296.556 44.2164,-290.556 44.2164,-284.556 44.2164,-284.556 44.2164,-193.356 44.2164,-193.356 44.2164,-187.356 50.2164,-181.356 56.2164,-181.356"/>
<text text-anchor="middle" x="101.589" y="-278.556" font-family="Times,serif" font-size="14.00">ShoutsController</text>
<polyline fill="none" stroke="black" points="44.2164,-271.756 158.962,-271.756 "/>
<text text-anchor="start" x="52.2164" y="-253.756" font-family="Times,serif" font-size="14.00">show</text>
<polyline fill="none" stroke="black" points="44.2164,-246.956 158.962,-246.956 "/>
<polyline fill="none" stroke="black" points="44.2164,-222.956 158.962,-222.956 "/>
<text text-anchor="start" x="52.2164" y="-204.956" font-family="Times,serif" font-size="14.00">_layout</text>
<text text-anchor="start" x="52.2164" y="-188.156" font-family="Times,serif" font-size="14.00">shout_parameters</text>
</g>
<!-- ApplicationController&#45;&gt;ShoutsController -->
<g id="edge6" class="edge"><title>ApplicationController&#45;&gt;ShoutsController</title>
<path fill="none" stroke="black" d="M175.77,-243.075C170.145,-242.763 164.597,-242.455 159.22,-242.156"/>
</g>
<!-- TextShoutsController -->
<g id="node9" class="node"><title>TextShoutsController</title>
<path fill="none" stroke="black" d="M405.839,-13.0696C405.839,-13.0696 524.577,-13.0696 524.577,-13.0696 530.577,-13.0696 536.577,-19.0696 536.577,-25.0696 536.577,-25.0696 536.577,-133.07 536.577,-133.07 536.577,-139.07 530.577,-145.07 524.577,-145.07 524.577,-145.07 405.839,-145.07 405.839,-145.07 399.839,-145.07 393.839,-139.07 393.839,-133.07 393.839,-133.07 393.839,-25.0696 393.839,-25.0696 393.839,-19.0696 399.839,-13.0696 405.839,-13.0696"/>
<text text-anchor="middle" x="465.208" y="-127.07" font-family="Times,serif" font-size="14.00">TextShoutsController</text>
<polyline fill="none" stroke="black" points="393.839,-120.27 536.577,-120.27 "/>
<text text-anchor="start" x="401.839" y="-102.27" font-family="Times,serif" font-size="14.00">create</text>
<polyline fill="none" stroke="black" points="393.839,-95.4696 536.577,-95.4696 "/>
<polyline fill="none" stroke="black" points="393.839,-71.4696 536.577,-71.4696 "/>
<text text-anchor="start" x="401.839" y="-53.4696" font-family="Times,serif" font-size="14.00">_layout</text>
<text text-anchor="start" x="401.839" y="-36.6696" font-family="Times,serif" font-size="14.00">build_content</text>
<text text-anchor="start" x="401.839" y="-19.8696" font-family="Times,serif" font-size="14.00">text_shout_parameters</text>
</g>
<!-- ApplicationController&#45;&gt;TextShoutsController -->
<g id="edge7" class="edge"><title>ApplicationController&#45;&gt;TextShoutsController</title>
<path fill="none" stroke="black" d="M331.766,-199.41C351.074,-181.998 373.085,-162.148 393.586,-143.659"/>
</g>
<!-- UsersController -->
<g id="node10" class="node"><title>UsersController</title>
<path fill="none" stroke="black" d="M253.286,-0.5C253.286,-0.5 334.713,-0.5 334.713,-0.5 340.713,-0.5 346.713,-6.5 346.713,-12.5 346.713,-12.5 346.713,-137.3 346.713,-137.3 346.713,-143.3 340.713,-149.3 334.713,-149.3 334.713,-149.3 253.286,-149.3 253.286,-149.3 247.286,-149.3 241.286,-143.3 241.286,-137.3 241.286,-137.3 241.286,-12.5 241.286,-12.5 241.286,-6.5 247.286,-0.5 253.286,-0.5"/>
<text text-anchor="middle" x="293.999" y="-131.3" font-family="Times,serif" font-size="14.00">UsersController</text>
<polyline fill="none" stroke="black" points="241.286,-124.5 346.713,-124.5 "/>
<text text-anchor="start" x="249.286" y="-106.5" font-family="Times,serif" font-size="14.00">create</text>
<text text-anchor="start" x="249.286" y="-89.7" font-family="Times,serif" font-size="14.00">new</text>
<text text-anchor="start" x="249.286" y="-72.9" font-family="Times,serif" font-size="14.00">show</text>
<polyline fill="none" stroke="black" points="241.286,-66.1 346.713,-66.1 "/>
<polyline fill="none" stroke="black" points="241.286,-42.1 346.713,-42.1 "/>
<text text-anchor="start" x="249.286" y="-24.1" font-family="Times,serif" font-size="14.00">_layout</text>
<text text-anchor="start" x="249.286" y="-7.3" font-family="Times,serif" font-size="14.00">user_params</text>
</g>
<!-- ApplicationController&#45;&gt;UsersController -->
<g id="edge8" class="edge"><title>ApplicationController&#45;&gt;UsersController</title>
<path fill="none" stroke="black" d="M281.902,-199.363C283.414,-183.808 285.119,-166.264 286.762,-149.361"/>
</g>
</g>
</svg>
