<?xml version="1.0" encoding="UTF-8" standalone="no"?>
<!DOCTYPE svg PUBLIC "-//W3C//DTD SVG 1.1//EN"
 "http://www.w3.org/Graphics/SVG/1.1/DTD/svg11.dtd">
<!-- Generated by graphviz version 2.30.1 (20130514.1915)
 -->
<!-- Title: models_diagram Pages: 1 -->
<svg width="847pt" height="334pt"
 viewBox="0.00 0.00 847.00 334.00" xmlns="http://www.w3.org/2000/svg" xmlns:xlink="http://www.w3.org/1999/xlink">
<g id="graph0" class="graph" transform="scale(1 1) rotate(0) translate(4 330)">
<title>models_diagram</title>
<polygon fill="white" stroke="white" points="-4,5 -4,-330 844,-330 844,5 -4,5"/>
<!-- _diagram_info -->
<g id="node1" class="node"><title>_diagram_info</title>
<text text-anchor="start" x="7.31226" y="-284" font-family="Times,serif" font-size="13.00">Models diagram</text>
<text text-anchor="start" x="7.31226" y="-268.4" font-family="Times,serif" font-size="13.00">Date: May 14 2013 &#45; 15:25</text>
<text text-anchor="start" x="7.31226" y="-252.8" font-family="Times,serif" font-size="13.00">Migration version: 20130514183729</text>
<text text-anchor="start" x="7.31226" y="-237.2" font-family="Times,serif" font-size="13.00">Generated by RailRoady 1.1.0</text>
<text text-anchor="start" x="7.31226" y="-221.6" font-family="Times,serif" font-size="13.00">http://railroady.prestonlee.com</text>
</g>
<!-- FollowingRelationship -->
<g id="node2" class="node"><title>FollowingRelationship</title>
<path fill="none" stroke="black" d="M387.881,-9.6C387.881,-9.6 524.119,-9.6 524.119,-9.6 530.119,-9.6 536.119,-15.6 536.119,-21.6 536.119,-21.6 536.119,-114.4 536.119,-114.4 536.119,-120.4 530.119,-126.4 524.119,-126.4 524.119,-126.4 387.881,-126.4 387.881,-126.4 381.881,-126.4 375.881,-120.4 375.881,-114.4 375.881,-114.4 375.881,-21.6 375.881,-21.6 375.881,-15.6 381.881,-9.6 387.881,-9.6"/>
<text text-anchor="middle" x="456" y="-108.4" font-family="Times,serif" font-size="14.00">FollowingRelationship</text>
<polyline fill="none" stroke="black" points="375.881,-101.6 536.119,-101.6 "/>
<text text-anchor="start" x="383.881" y="-83.6" font-family="Times,serif" font-size="14.00">id :integer</text>
<text text-anchor="start" x="383.881" y="-66.8" font-family="Times,serif" font-size="14.00">follower_id :integer</text>
<text text-anchor="start" x="383.881" y="-50" font-family="Times,serif" font-size="14.00">followed_user_id :integer</text>
<text text-anchor="start" x="383.881" y="-33.2" font-family="Times,serif" font-size="14.00">created_at :datetime</text>
<text text-anchor="start" x="383.881" y="-16.4" font-family="Times,serif" font-size="14.00">updated_at :datetime</text>
</g>
<!-- PhotoShout -->
<g id="node3" class="node"><title>PhotoShout</title>
<path fill="none" stroke="black" d="M575.891,-199.6C575.891,-199.6 726.109,-199.6 726.109,-199.6 732.109,-199.6 738.109,-205.6 738.109,-211.6 738.109,-211.6 738.109,-304.4 738.109,-304.4 738.109,-310.4 732.109,-316.4 726.109,-316.4 726.109,-316.4 575.891,-316.4 575.891,-316.4 569.891,-316.4 563.891,-310.4 563.891,-304.4 563.891,-304.4 563.891,-211.6 563.891,-211.6 563.891,-205.6 569.891,-199.6 575.891,-199.6"/>
<text text-anchor="middle" x="651" y="-298.4" font-family="Times,serif" font-size="14.00">PhotoShout</text>
<polyline fill="none" stroke="black" points="563.891,-291.6 738.109,-291.6 "/>
<text text-anchor="start" x="571.891" y="-273.6" font-family="Times,serif" font-size="14.00">id :integer</text>
<text text-anchor="start" x="571.891" y="-256.8" font-family="Times,serif" font-size="14.00">image_file_name :string</text>
<text text-anchor="start" x="571.891" y="-240" font-family="Times,serif" font-size="14.00">image_content_type :string</text>
<text text-anchor="start" x="571.891" y="-223.2" font-family="Times,serif" font-size="14.00">image_file_size :integer</text>
<text text-anchor="start" x="571.891" y="-206.4" font-family="Times,serif" font-size="14.00">image_updated_at :datetime</text>
</g>
<!-- Shout -->
<g id="node4" class="node"><title>Shout</title>
<path fill="none" stroke="black" d="M211.495,-1.2C211.495,-1.2 320.505,-1.2 320.505,-1.2 326.505,-1.2 332.505,-7.2 332.505,-13.2 332.505,-13.2 332.505,-122.8 332.505,-122.8 332.505,-128.8 326.505,-134.8 320.505,-134.8 320.505,-134.8 211.495,-134.8 211.495,-134.8 205.495,-134.8 199.495,-128.8 199.495,-122.8 199.495,-122.8 199.495,-13.2 199.495,-13.2 199.495,-7.2 205.495,-1.2 211.495,-1.2"/>
<text text-anchor="middle" x="266" y="-116.8" font-family="Times,serif" font-size="14.00">Shout</text>
<polyline fill="none" stroke="black" points="199.495,-110 332.505,-110 "/>
<text text-anchor="start" x="207.495" y="-92" font-family="Times,serif" font-size="14.00">id :integer</text>
<text text-anchor="start" x="207.495" y="-75.2" font-family="Times,serif" font-size="14.00">user_id :integer</text>
<text text-anchor="start" x="207.495" y="-58.4" font-family="Times,serif" font-size="14.00">created_at :datetime</text>
<text text-anchor="start" x="207.495" y="-41.6" font-family="Times,serif" font-size="14.00">updated_at :datetime</text>
<text text-anchor="start" x="207.495" y="-24.8" font-family="Times,serif" font-size="14.00">content_type :string</text>
<text text-anchor="start" x="207.495" y="-8" font-family="Times,serif" font-size="14.00">content_id :integer</text>
</g>
<!-- TextShout -->
<g id="node5" class="node"><title>TextShout</title>
<path fill="none" stroke="black" d="M768.36,-224.8C768.36,-224.8 827.64,-224.8 827.64,-224.8 833.64,-224.8 839.64,-230.8 839.64,-236.8 839.64,-236.8 839.64,-279.2 839.64,-279.2 839.64,-285.2 833.64,-291.2 827.64,-291.2 827.64,-291.2 768.36,-291.2 768.36,-291.2 762.36,-291.2 756.36,-285.2 756.36,-279.2 756.36,-279.2 756.36,-236.8 756.36,-236.8 756.36,-230.8 762.36,-224.8 768.36,-224.8"/>
<text text-anchor="middle" x="798" y="-273.2" font-family="Times,serif" font-size="14.00">TextShout</text>
<polyline fill="none" stroke="black" points="756.36,-266.4 839.64,-266.4 "/>
<text text-anchor="start" x="764.36" y="-248.4" font-family="Times,serif" font-size="14.00">id :integer</text>
<text text-anchor="start" x="764.36" y="-231.6" font-family="Times,serif" font-size="14.00">body :string</text>
</g>
<!-- User -->
<g id="node6" class="node"><title>User</title>
<path fill="none" stroke="black" d="M236.698,-191.2C236.698,-191.2 361.302,-191.2 361.302,-191.2 367.302,-191.2 373.302,-197.2 373.302,-203.2 373.302,-203.2 373.302,-312.8 373.302,-312.8 373.302,-318.8 367.302,-324.8 361.302,-324.8 361.302,-324.8 236.698,-324.8 236.698,-324.8 230.698,-324.8 224.698,-318.8 224.698,-312.8 224.698,-312.8 224.698,-203.2 224.698,-203.2 224.698,-197.2 230.698,-191.2 236.698,-191.2"/>
<text text-anchor="middle" x="299" y="-306.8" font-family="Times,serif" font-size="14.00">User</text>
<polyline fill="none" stroke="black" points="224.698,-300 373.302,-300 "/>
<text text-anchor="start" x="232.698" y="-282" font-family="Times,serif" font-size="14.00">id :integer</text>
<text text-anchor="start" x="232.698" y="-265.2" font-family="Times,serif" font-size="14.00">email :string</text>
<text text-anchor="start" x="232.698" y="-248.4" font-family="Times,serif" font-size="14.00">password_digest :string</text>
<text text-anchor="start" x="232.698" y="-231.6" font-family="Times,serif" font-size="14.00">created_at :datetime</text>
<text text-anchor="start" x="232.698" y="-214.8" font-family="Times,serif" font-size="14.00">updated_at :datetime</text>
<text text-anchor="start" x="232.698" y="-198" font-family="Times,serif" font-size="14.00">username :string</text>
</g>
<!-- User&#45;&gt;Shout -->
<g id="edge1" class="edge"><title>User&#45;&gt;Shout</title>
<path fill="none" stroke="#a4a510" d="M282.022,-182.766C281.311,-179.131 280.633,-175.528 280,-172 278.449,-163.353 276.981,-154.27 275.622,-145.23"/>
<ellipse fill="none" stroke="#a4a510" cx="282.837" cy="-186.833" rx="4.00001" ry="4.00001"/>
<polygon fill="#a4a510" stroke="#a4a510" points="275.583,-144.962 278.587,-134.415 274.858,-140.014 274.134,-135.067 274.134,-135.067 274.134,-135.067 274.858,-140.014 269.681,-135.719 275.583,-144.962 275.583,-144.962"/>
</g>
<!-- User&#45;&gt;FollowingRelationship -->
<g id="edge2" class="edge"><title>User&#45;&gt;FollowingRelationship</title>
<path fill="none" stroke="#f236b6" d="M289.917,-183.092C291.436,-172.736 294.633,-162.682 300.365,-154 311.248,-137.516 323.41,-144.985 341,-136 349.4,-131.709 358.045,-127.083 366.643,-122.338"/>
<ellipse fill="none" stroke="#f236b6" cx="289.493" cy="-187.074" rx="4.00001" ry="4.00001"/>
<polygon fill="#f236b6" stroke="#f236b6" points="366.84,-122.229 377.766,-121.29 371.207,-119.794 375.574,-117.359 375.574,-117.359 375.574,-117.359 371.207,-119.794 373.383,-113.429 366.84,-122.229 366.84,-122.229"/>
<text text-anchor="middle" x="380.317" y="-157.4" font-family="Times,serif" font-size="14.00">followed_user_relationships</text>
</g>
<!-- User&#45;&gt;User -->
<g id="edge3" class="edge"><title>User&#45;&gt;User</title>
<path fill="none" stroke="#e969c6" d="M382.869,-270.216C387.949,-267.313 391,-263.241 391,-258 391,-252.759 387.949,-248.687 382.869,-245.784"/>
<polygon fill="#e969c6" stroke="#e969c6" points="382.712,-270.276 371.767,-269.608 378.036,-272.046 373.36,-273.817 373.36,-273.817 373.36,-273.817 378.036,-272.046 374.954,-278.025 382.712,-270.276 382.712,-270.276"/>
<polygon fill="#e969c6" stroke="#e969c6" points="382.712,-245.724 374.954,-237.975 378.036,-243.954 373.36,-242.183 373.36,-242.183 373.36,-242.183 378.036,-243.954 371.767,-246.392 382.712,-245.724 382.712,-245.724"/>
<text text-anchor="middle" x="433.769" y="-252.4" font-family="Times,serif" font-size="14.00">followed_users</text>
</g>
<!-- User&#45;&gt;FollowingRelationship -->
<g id="edge4" class="edge"><title>User&#45;&gt;FollowingRelationship</title>
<path fill="none" stroke="#b387a8" d="M380.942,-233.427C410.9,-220.405 441.671,-200.829 459,-172 465.336,-161.459 468.053,-149.151 468.637,-136.785"/>
<ellipse fill="none" stroke="#b387a8" cx="377.042" cy="-235.057" rx="4.00001" ry="4.00001"/>
<polygon fill="#b387a8" stroke="#b387a8" points="468.638,-136.422 473.159,-126.432 468.648,-131.422 468.659,-126.422 468.659,-126.422 468.659,-126.422 468.648,-131.422 464.159,-126.413 468.638,-136.422 468.638,-136.422"/>
<text text-anchor="middle" x="528.986" y="-157.4" font-family="Times,serif" font-size="14.00">follower_relationships</text>
</g>
<!-- User&#45;&gt;User -->
<g id="edge5" class="edge"><title>User&#45;&gt;User</title>
<path fill="none" stroke="#1caa3f" d="M382.869,-270.216C387.949,-267.313 391,-263.241 391,-258 391,-252.759 387.949,-248.687 382.869,-245.784"/>
<polygon fill="#1caa3f" stroke="#1caa3f" points="382.712,-270.276 371.767,-269.608 378.036,-272.046 373.36,-273.817 373.36,-273.817 373.36,-273.817 378.036,-272.046 374.954,-278.025 382.712,-270.276 382.712,-270.276"/>
<polygon fill="#1caa3f" stroke="#1caa3f" points="382.712,-245.724 374.954,-237.975 378.036,-243.954 373.36,-242.183 373.36,-242.183 373.36,-242.183 378.036,-243.954 371.767,-246.392 382.712,-245.724 382.712,-245.724"/>
<text text-anchor="middle" x="417.438" y="-252.4" font-family="Times,serif" font-size="14.00">followers</text>
</g>
</g>
</svg>
