<?xml version="1.0" encoding="UTF-8" standalone="no"?>
<!DOCTYPE svg PUBLIC "-//W3C//DTD SVG 1.1//EN"
 "http://www.w3.org/Graphics/SVG/1.1/DTD/svg11.dtd">
<!-- Generated by graphviz version 2.30.1 (20130514.1915)
 -->
<!-- Title: models_diagram Pages: 1 -->
<svg width="713pt" height="184pt"
 viewBox="0.00 0.00 713.00 184.00" xmlns="http://www.w3.org/2000/svg" xmlns:xlink="http://www.w3.org/1999/xlink">
<g id="graph0" class="graph" transform="scale(1 1) rotate(0) translate(4 180)">
<title>models_diagram</title>
<polygon fill="white" stroke="white" points="-4,5 -4,-180 710,-180 710,5 -4,5"/>
<!-- _diagram_info -->
<g id="node1" class="node"><title>_diagram_info</title>
<text text-anchor="start" x="7.31226" y="-159" font-family="Times,serif" font-size="13.00">Models diagram</text>
<text text-anchor="start" x="7.31226" y="-143.4" font-family="Times,serif" font-size="13.00">Date: May 14 2013 &#45; 15:25</text>
<text text-anchor="start" x="7.31226" y="-127.8" font-family="Times,serif" font-size="13.00">Migration version: 20130514183729</text>
<text text-anchor="start" x="7.31226" y="-112.2" font-family="Times,serif" font-size="13.00">Generated by RailRoady 1.1.0</text>
<text text-anchor="start" x="7.31226" y="-96.6" font-family="Times,serif" font-size="13.00">http://railroady.prestonlee.com</text>
</g>
<!-- FollowingRelationship -->
<g id="node2" class="node"><title>FollowingRelationship</title>
<ellipse fill="none" stroke="black" cx="404" cy="-18" rx="99.3423" ry="18"/>
<text text-anchor="middle" x="404" y="-12.4" font-family="Times,serif" font-size="14.00">FollowingRelationship</text>
</g>
<!-- PhotoShout -->
<g id="node3" class="node"><title>PhotoShout</title>
<ellipse fill="none" stroke="black" cx="530" cy="-133" rx="56.1724" ry="18"/>
<text text-anchor="middle" x="530" y="-127.4" font-family="Times,serif" font-size="14.00">PhotoShout</text>
</g>
<!-- Shout -->
<g id="node4" class="node"><title>Shout</title>
<ellipse fill="none" stroke="black" cx="221" cy="-18" rx="33.363" ry="18"/>
<text text-anchor="middle" x="221" y="-12.4" font-family="Times,serif" font-size="14.00">Shout</text>
</g>
<!-- TextShout -->
<g id="node5" class="node"><title>TextShout</title>
<ellipse fill="none" stroke="black" cx="655" cy="-133" rx="50.3965" ry="18"/>
<text text-anchor="middle" x="655" y="-127.4" font-family="Times,serif" font-size="14.00">TextShout</text>
</g>
<!-- User -->
<g id="node6" class="node"><title>User</title>
<ellipse fill="none" stroke="black" cx="254" cy="-133" rx="28.9087" ry="18"/>
<text text-anchor="middle" x="254" y="-127.4" font-family="Times,serif" font-size="14.00">User</text>
</g>
<!-- User&#45;&gt;Shout -->
<g id="edge1" class="edge"><title>User&#45;&gt;Shout</title>
<path fill="none" stroke="#2aced5" d="M245.925,-107.433C242.442,-96.605 238.398,-83.7068 235,-72 232.575,-63.6456 230.097,-54.5003 227.913,-46.1939"/>
<ellipse fill="none" stroke="#2aced5" cx="247.226" cy="-111.45" rx="4.00001" ry="4.00001"/>
<polygon fill="#2aced5" stroke="#2aced5" points="227.843,-45.923 229.685,-35.113 226.586,-41.0835 225.33,-36.2439 225.33,-36.2439 225.33,-36.2439 226.586,-41.0835 220.974,-37.3748 227.843,-45.923 227.843,-45.923"/>
</g>
<!-- User&#45;&gt;FollowingRelationship -->
<g id="edge2" class="edge"><title>User&#45;&gt;FollowingRelationship</title>
<path fill="none" stroke="#15e106" d="M247.123,-106.818C244.154,-90.065 243.638,-68.5456 255.365,-54 263.627,-43.7525 287.845,-36.1886 314.396,-30.7684"/>
<ellipse fill="none" stroke="#15e106" cx="248.03" cy="-111.167" rx="4.00001" ry="4.00001"/>
<polygon fill="#15e106" stroke="#15e106" points="314.439,-30.7601 325.11,-33.2861 319.349,-29.8138 324.259,-28.8674 324.259,-28.8674 324.259,-28.8674 319.349,-29.8138 323.407,-24.4487 314.439,-30.7601 314.439,-30.7601"/>
<text text-anchor="middle" x="335.317" y="-57.4" font-family="Times,serif" font-size="14.00">followed_user_relationships</text>
</g>
<!-- User&#45;&gt;User -->
<g id="edge3" class="edge"><title>User&#45;&gt;User</title>
<path fill="none" stroke="#9fc277" d="M285.742,-146.037C294.399,-145.378 301,-141.032 301,-133 301,-124.968 294.399,-120.622 285.742,-119.963"/>
<polygon fill="#9fc277" stroke="#9fc277" points="285.729,-146.036 276.085,-140.817 280.742,-145.67 275.756,-145.305 275.756,-145.305 275.756,-145.305 280.742,-145.67 275.427,-149.793 285.729,-146.036 285.729,-146.036"/>
<polygon fill="#9fc277" stroke="#9fc277" points="285.729,-119.964 275.427,-116.207 280.742,-120.33 275.756,-120.695 275.756,-120.695 275.756,-120.695 280.742,-120.33 276.085,-125.183 285.729,-119.964 285.729,-119.964"/>
<text text-anchor="middle" x="343.769" y="-127.4" font-family="Times,serif" font-size="14.00">followed_users</text>
</g>
<!-- User&#45;&gt;FollowingRelationship -->
<g id="edge4" class="edge"><title>User&#45;&gt;FollowingRelationship</title>
<path fill="none" stroke="#54d4ea" d="M291.314,-129.709C329.336,-125.152 386.508,-111.671 414,-72 419.27,-64.3951 418.982,-54.7647 416.641,-45.8055"/>
<ellipse fill="none" stroke="#54d4ea" cx="287.013" cy="-130.17" rx="4" ry="4"/>
<polygon fill="#54d4ea" stroke="#54d4ea" points="416.563,-45.5766 417.569,-34.657 414.938,-40.8479 413.313,-36.1192 413.313,-36.1192 413.313,-36.1192 414.938,-40.8479 409.057,-37.5815 416.563,-45.5766 416.563,-45.5766"/>
<text text-anchor="middle" x="480.986" y="-57.4" font-family="Times,serif" font-size="14.00">follower_relationships</text>
</g>
<!-- User&#45;&gt;User -->
<g id="edge5" class="edge"><title>User&#45;&gt;User</title>
<path fill="none" stroke="#432bac" d="M285.742,-146.037C294.399,-145.378 301,-141.032 301,-133 301,-124.968 294.399,-120.622 285.742,-119.963"/>
<polygon fill="#432bac" stroke="#432bac" points="285.729,-146.036 276.085,-140.817 280.742,-145.67 275.756,-145.305 275.756,-145.305 275.756,-145.305 280.742,-145.67 275.427,-149.793 285.729,-146.036 285.729,-146.036"/>
<polygon fill="#432bac" stroke="#432bac" points="285.729,-119.964 275.427,-116.207 280.742,-120.33 275.756,-120.695 275.756,-120.695 275.756,-120.695 280.742,-120.33 276.085,-125.183 285.729,-119.964 285.729,-119.964"/>
<text text-anchor="middle" x="327.438" y="-127.4" font-family="Times,serif" font-size="14.00">followers</text>
</g>
</g>
</svg>
